<svg xmlns="http://www.w3.org/2000/svg" viewBox="0 0 1714 1080"><g id="_3" data-name="3"><path d="M23,734.19c38.17,118,143.82,278.65,291.78,298.12C486,1054.86,572.34,869.63,747.67,908.63c96.41,21.43,82.6,80.15,217.25,133.2,34.85,13.73,200.6,74.72,379,6.34,62-23.75,169.92-65.13,201.39-158.57,35.47-105.31-61.49-171.93-22.2-266.41,42.58-102.38,184.2-90.85,190.29-155.4C1720.06,397,1557,308.34,1408.93,277.5c-138.44-28.83-160.93,14.34-255.31-22.2C996.48,194.46,1007.27,54.79,880.88,25.37,788.83,4,762.06,73.12,571.66,123.69c-203.37,54-242.64-6.36-345.69,46C64.08,251.9-50.13,508.12,23,734.19Z" style="fill:#662d91"/><path d="M803.56,463.9c-1.46-2.37-4.56-5.66-7.6-5.38-1.09.1-3.29,2.12-1.42,2.85,1.07.42,2.17,2.3,3,3.1a12.1,12.1,0,0,1,2.64,3.5c1.32,2.58.49,6,2.4,8.23.84,1,2.79,0,3.13-1C806.93,471.71,805.42,466.93,803.56,463.9Z" style="fill:#432666"/><path d="M812.65,453.13c-1.24-2.43-2.72-6-6-5.5-.58.08-1.26.84-.53,1.27.49.29,1,2.22,1.32,2.84.8,1.67,1.64,3.38,2.34,5.1a26.58,26.58,0,0,1,1.47,5c.32,1.61.2,3.33,1,4.78a1.49,1.49,0,0,0,2.49-.23C816.31,462,814.67,457.09,812.65,453.13Z" style="fill:#432666"/><path d="M821.92,456c-1-.54-3.15.19-2.72,1.63.32,1.09-.1,2.66-.15,3.79a24.55,24.55,0,0,1-.29,5.07c-.6,2.38-2.78,4.49-2.63,7,.09,1.51,2.37,1.12,3,.29a16.45,16.45,0,0,0,4.08-9.95C823.28,462,824.14,457.21,821.92,456Z" style="fill:#432666"/><path d="M492.75,341.8c-1.46-2.37-4.56-5.66-7.6-5.38-1.09.1-3.28,2.12-1.41,2.85,1.07.42,2.17,2.3,3,3.1a11.93,11.93,0,0,1,2.63,3.5c1.32,2.58.5,6,2.41,8.23.83,1,2.79,0,3.12-1C496.13,349.61,494.62,344.83,492.75,341.8Z" style="fill:#432666"/><path d="M501.85,331c-1.25-2.43-2.73-6-6-5.51-.57.09-1.26.84-.52,1.28.49.29,1,2.22,1.31,2.84.81,1.67,1.65,3.38,2.35,5.1a26.55,26.55,0,0,1,1.46,4.95c.33,1.61.2,3.33,1,4.78a1.48,1.48,0,0,0,2.49-.24C505.51,339.88,503.87,335,501.85,331Z" style="fill:#432666"/><path d="M511.12,333.94c-1-.54-3.15.18-2.72,1.63.31,1.09-.11,2.66-.15,3.79a24.59,24.59,0,0,1-.29,5.07c-.6,2.37-2.78,4.49-2.63,7,.09,1.52,2.37,1.13,3,.3a16.4,16.4,0,0,0,4.07-9.95C512.48,339.88,513.33,335.11,511.12,333.94Z" style="fill:#432666"/><path d="M358.17,556c-1.46-2.37-4.56-5.66-7.6-5.38-1.09.1-3.28,2.11-1.41,2.85,1.06.41,2.16,2.3,3,3.09a12.15,12.15,0,0,1,2.63,3.51c1.32,2.57.49,6,2.4,8.22.84,1,2.79,0,3.13-1C361.54,563.78,360,559,358.17,556Z" style="fill:#432666"/><path d="M367.26,545.21c-1.24-2.43-2.72-6-6-5.51-.58.08-1.26.84-.53,1.28.49.29,1,2.21,1.32,2.83.8,1.67,1.64,3.38,2.34,5.11a26.58,26.58,0,0,1,1.47,5c.32,1.61.2,3.33,1,4.78a1.49,1.49,0,0,0,2.49-.24C370.92,554.05,369.28,549.16,367.26,545.21Z" style="fill:#432666"/><path d="M376.53,548.12c-1-.55-3.14.18-2.72,1.62.32,1.09-.1,2.66-.15,3.79a25.22,25.22,0,0,1-.28,5.07c-.61,2.38-2.79,4.49-2.64,7,.1,1.52,2.37,1.12,3,.3a16.5,16.5,0,0,0,4.08-10C377.89,554.06,378.75,549.28,376.53,548.12Z" style="fill:#432666"/><path d="M389.88,196c-1.46-2.37-4.56-5.66-7.6-5.39-1.09.1-3.28,2.12-1.41,2.85,1.06.42,2.17,2.3,3,3.1a12.06,12.06,0,0,1,2.63,3.5c1.32,2.58.5,6,2.41,8.23.83,1,2.79,0,3.12-1C393.26,203.82,391.75,199,389.88,196Z" style="fill:#432666"/><path d="M399,185.25c-1.25-2.44-2.73-6-6-5.51-.57.08-1.26.84-.52,1.27.49.29,1,2.22,1.31,2.84.81,1.67,1.65,3.38,2.35,5.1a27,27,0,0,1,1.46,5c.32,1.62.2,3.34,1,4.79a1.49,1.49,0,0,0,2.49-.24C402.64,194.09,401,189.2,399,185.25Z" style="fill:#432666"/><path d="M408.25,188.16c-1-.55-3.15.18-2.72,1.62.31,1.09-.11,2.66-.15,3.79a24.51,24.51,0,0,1-.29,5.07c-.6,2.38-2.78,4.49-2.63,7,.09,1.52,2.37,1.12,3,.29a16.38,16.38,0,0,0,4.07-9.95C409.61,194.09,410.46,189.32,408.25,188.16Z" style="fill:#432666"/><path d="M778.39,126.24c-1.46-2.37-4.56-5.66-7.6-5.38-1.09.1-3.28,2.12-1.41,2.85,1.06.42,2.16,2.3,3,3.1a12.1,12.1,0,0,1,2.64,3.5c1.32,2.58.49,6,2.4,8.23.84,1,2.79,0,3.13-1C781.76,134.05,780.25,129.27,778.39,126.24Z" style="fill:#432666"/><path d="M787.48,115.47c-1.24-2.43-2.72-6-6-5.5-.58.08-1.26.84-.53,1.27.49.29,1,2.22,1.32,2.84.8,1.67,1.64,3.38,2.34,5.1a26.58,26.58,0,0,1,1.47,4.95c.32,1.61.2,3.33,1,4.78a1.49,1.49,0,0,0,2.49-.23C791.14,124.32,789.5,119.43,787.48,115.47Z" style="fill:#432666"/><path d="M796.75,118.38c-1-.54-3.15.19-2.72,1.63.32,1.09-.1,2.66-.15,3.79a25.3,25.3,0,0,1-.28,5.07c-.61,2.38-2.79,4.49-2.64,7,.09,1.51,2.37,1.12,3,.29a16.45,16.45,0,0,0,4.08-10C798.11,124.32,799,119.55,796.75,118.38Z" style="fill:#432666"/><path d="M126.65,368.86c-1.46-2.37-4.56-5.66-7.6-5.38-1.09.1-3.28,2.12-1.41,2.85,1.06.42,2.17,2.3,3,3.09a12.11,12.11,0,0,1,2.63,3.51c1.32,2.57.5,6,2.41,8.22.83,1,2.78,0,3.12-1C130,376.67,128.51,371.88,126.65,368.86Z" style="fill:#432666"/><path d="M135.74,358.09c-1.24-2.43-2.72-6-6-5.51-.58.09-1.26.84-.53,1.28.5.29,1,2.22,1.32,2.84.81,1.67,1.64,3.38,2.35,5.1a27.33,27.33,0,0,1,1.46,4.95c.32,1.61.2,3.33,1,4.78a1.49,1.49,0,0,0,2.5-.24C139.4,366.93,137.76,362.05,135.74,358.09Z" style="fill:#432666"/><path d="M145,361c-1-.54-3.14.18-2.72,1.63.32,1.08-.1,2.66-.15,3.78a24,24,0,0,1-.28,5.08c-.6,2.37-2.78,4.48-2.63,7,.09,1.52,2.37,1.13,3,.3a16.38,16.38,0,0,0,4.08-10C146.37,366.94,147.23,362.17,145,361Z" style="fill:#432666"/><path d="M212.28,952.41c-1.46-2.37-4.56-5.66-7.6-5.38-1.09.1-3.28,2.12-1.41,2.85,1.06.42,2.17,2.3,3,3.09a12.29,12.29,0,0,1,2.63,3.51c1.32,2.57.49,6,2.41,8.22.83,1,2.78,0,3.12-1C215.66,960.22,214.14,955.43,212.28,952.41Z" style="fill:#432666"/><path d="M221.37,941.64c-1.24-2.43-2.72-6-6-5.51-.58.09-1.26.84-.53,1.28.5.29,1,2.22,1.32,2.84.8,1.67,1.64,3.38,2.35,5.1A27.33,27.33,0,0,1,220,950.3c.32,1.61.2,3.33,1,4.78a1.49,1.49,0,0,0,2.5-.24C225,950.48,223.39,945.6,221.37,941.64Z" style="fill:#432666"/><path d="M230.64,944.55c-1-.54-3.14.18-2.72,1.63.32,1.08-.1,2.66-.15,3.78a24,24,0,0,1-.28,5.08c-.6,2.37-2.78,4.48-2.63,7,.09,1.52,2.37,1.13,3,.3a16.38,16.38,0,0,0,4.08-10C232,950.49,232.86,945.72,230.64,944.55Z" style="fill:#432666"/><path d="M490.83,833.14c-1.46-2.37-4.56-5.66-7.6-5.38-1.09.1-3.28,2.12-1.41,2.85,1.06.42,2.16,2.3,3,3.1a12.24,12.24,0,0,1,2.63,3.5c1.32,2.58.49,6,2.4,8.23.84,1,2.79,0,3.13-1C494.21,841,492.69,836.17,490.83,833.14Z" style="fill:#432666"/><path d="M499.92,822.37c-1.24-2.43-2.72-6-6-5.5-.58.08-1.26.84-.53,1.27.49.29,1,2.22,1.32,2.84.8,1.67,1.64,3.38,2.34,5.1a26.58,26.58,0,0,1,1.47,4.95c.32,1.61.2,3.33,1,4.78a1.49,1.49,0,0,0,2.49-.23C503.58,831.22,501.94,826.33,499.92,822.37Z" style="fill:#432666"/><path d="M509.19,825.28c-1-.54-3.14.19-2.72,1.63.32,1.09-.1,2.66-.15,3.79a23.9,23.9,0,0,1-.28,5.07c-.6,2.37-2.78,4.49-2.63,7,.09,1.51,2.37,1.12,3,.29a16.33,16.33,0,0,0,4.08-9.95C510.55,831.22,511.41,826.45,509.19,825.28Z" style="fill:#432666"/><path d="M571.7,603.21c-1.46-2.37-4.56-5.66-7.6-5.38-1.09.1-3.28,2.12-1.41,2.85,1.06.42,2.17,2.3,3,3.1a11.93,11.93,0,0,1,2.63,3.5c1.32,2.58.5,6,2.41,8.23.83,1,2.79,0,3.12-1C575.08,611,573.57,606.24,571.7,603.21Z" style="fill:#432666"/><path d="M580.8,592.44c-1.25-2.43-2.73-6-6-5.51-.57.09-1.26.84-.52,1.28.49.29,1,2.22,1.31,2.84.81,1.67,1.65,3.38,2.35,5.1a26.55,26.55,0,0,1,1.46,5c.32,1.61.2,3.33,1,4.78a1.48,1.48,0,0,0,2.49-.24C584.46,601.29,582.82,596.4,580.8,592.44Z" style="fill:#432666"/><path d="M590.07,595.35c-1-.54-3.15.18-2.73,1.63.32,1.09-.1,2.66-.14,3.79a24.59,24.59,0,0,1-.29,5.07c-.6,2.37-2.78,4.48-2.63,7,.09,1.52,2.37,1.13,3,.3a16.35,16.35,0,0,0,4.08-10C591.43,601.29,592.28,596.52,590.07,595.35Z" style="fill:#432666"/><path d="M999.85,745.93c-1.46-2.37-4.56-5.66-7.6-5.38-1.09.1-3.28,2.11-1.41,2.85,1.06.41,2.17,2.3,3,3.09a12.29,12.29,0,0,1,2.63,3.51c1.32,2.57.49,6,2.41,8.22.83,1,2.78,0,3.12-1C1003.23,753.73,1001.71,749,999.85,745.93Z" style="fill:#432666"/><path d="M1008.94,735.16c-1.24-2.43-2.72-6-6-5.51-.58.09-1.26.84-.53,1.28.5.29,1,2.21,1.32,2.83.8,1.67,1.64,3.38,2.35,5.11a27.33,27.33,0,0,1,1.46,5c.32,1.61.2,3.33,1,4.78a1.5,1.5,0,0,0,2.5-.24C1012.6,744,1011,739.11,1008.94,735.16Z" style="fill:#432666"/><path d="M1018.21,738.07c-1-.55-3.14.18-2.72,1.62.32,1.09-.1,2.66-.15,3.79a23.83,23.83,0,0,1-.28,5.07c-.6,2.38-2.78,4.49-2.63,7,.09,1.52,2.37,1.12,3,.3a16.38,16.38,0,0,0,4.08-10C1019.57,744,1020.43,739.23,1018.21,738.07Z" style="fill:#432666"/><path d="M1140.78,400.24c-1.46-2.37-4.56-5.66-7.6-5.38-1.09.1-3.28,2.11-1.41,2.85,1.06.41,2.16,2.3,3,3.09a12.29,12.29,0,0,1,2.63,3.51c1.32,2.57.49,6,2.4,8.22.84,1,2.79,0,3.13-1C1144.15,408,1142.64,403.26,1140.78,400.24Z" style="fill:#432666"/><path d="M1149.87,389.47c-1.24-2.43-2.72-6-6-5.51-.58.09-1.26.84-.53,1.28.49.29,1,2.21,1.32,2.83.8,1.67,1.64,3.38,2.34,5.11a26.58,26.58,0,0,1,1.47,4.95c.32,1.61.2,3.33,1,4.78a1.49,1.49,0,0,0,2.49-.24C1153.53,398.31,1151.89,393.42,1149.87,389.47Z" style="fill:#432666"/><path d="M1159.14,392.38c-1-.55-3.14.18-2.72,1.62.32,1.09-.1,2.66-.15,3.79a24.5,24.5,0,0,1-.28,5.07c-.6,2.38-2.79,4.49-2.64,7,.1,1.52,2.37,1.12,3,.3a16.5,16.5,0,0,0,4.08-10C1160.5,398.32,1161.36,393.54,1159.14,392.38Z" style="fill:#432666"/><path d="M1272.39,590.53c-1.46-2.37-4.56-5.66-7.6-5.38-1.09.1-3.28,2.11-1.41,2.84,1.07.42,2.17,2.3,3,3.1a11.89,11.89,0,0,1,2.63,3.5c1.32,2.58.5,6,2.41,8.23.84,1,2.79,0,3.13-1C1275.77,598.33,1274.26,593.55,1272.39,590.53Z" style="fill:#432666"/><path d="M1281.49,579.76c-1.24-2.44-2.73-6-6-5.51-.57.08-1.26.84-.52,1.27.49.3,1,2.22,1.31,2.84.81,1.67,1.65,3.38,2.35,5.11a27.49,27.49,0,0,1,1.47,4.94c.32,1.62.19,3.34,1,4.79a1.49,1.49,0,0,0,2.49-.24C1285.15,588.6,1283.51,583.71,1281.49,579.76Z" style="fill:#432666"/><path d="M1290.76,582.67c-1-.55-3.15.18-2.72,1.62.32,1.09-.11,2.66-.15,3.79a24.51,24.51,0,0,1-.29,5.07c-.6,2.38-2.78,4.49-2.63,7,.09,1.52,2.37,1.12,3,.29a16.45,16.45,0,0,0,4.08-9.95C1292.12,588.61,1293,583.83,1290.76,582.67Z" style="fill:#432666"/><path d="M1110.65,1012.33c-1.46-2.37-4.56-5.66-7.6-5.38-1.09.1-3.28,2.12-1.41,2.85,1.06.42,2.16,2.3,3,3.09a12.29,12.29,0,0,1,2.63,3.51c1.32,2.58.49,6,2.4,8.23.84,1,2.79,0,3.13-1C1114,1020.14,1112.51,1015.35,1110.65,1012.33Z" style="fill:#432666"/><path d="M1119.74,1001.56c-1.24-2.43-2.72-6-6-5.51-.58.09-1.26.84-.53,1.28.49.29,1,2.22,1.32,2.84.8,1.67,1.64,3.38,2.34,5.1a26.58,26.58,0,0,1,1.47,5c.32,1.61.2,3.33,1,4.78a1.48,1.48,0,0,0,2.49-.24C1123.4,1010.41,1121.76,1005.52,1119.74,1001.56Z" style="fill:#432666"/><path d="M1129,1004.47c-1-.54-3.14.18-2.72,1.63.32,1.08-.1,2.66-.15,3.78a24.64,24.64,0,0,1-.28,5.08c-.6,2.37-2.78,4.48-2.63,7,.09,1.52,2.37,1.13,3,.3a16.38,16.38,0,0,0,4.08-10C1130.37,1010.41,1131.23,1005.64,1129,1004.47Z" style="fill:#432666"/><path d="M1494.4,403.41c-1.46-2.37-4.56-5.66-7.6-5.38-1.09.1-3.29,2.12-1.41,2.85,1.06.42,2.16,2.3,3,3.09a12.14,12.14,0,0,1,2.64,3.51c1.32,2.57.49,6,2.4,8.22.84,1,2.79,0,3.13-1C1497.77,411.22,1496.26,406.43,1494.4,403.41Z" style="fill:#432666"/><path d="M1503.49,392.64c-1.24-2.43-2.72-6-6-5.51-.58.09-1.26.84-.53,1.28.49.29,1,2.22,1.32,2.84.8,1.66,1.64,3.38,2.34,5.1a26.58,26.58,0,0,1,1.47,4.95c.32,1.61.2,3.33,1,4.78a1.48,1.48,0,0,0,2.49-.24C1507.15,401.48,1505.51,396.6,1503.49,392.64Z" style="fill:#432666"/><path d="M1512.76,395.55c-1-.55-3.15.18-2.72,1.63.32,1.08-.1,2.65-.15,3.78a24.64,24.64,0,0,1-.29,5.08c-.6,2.37-2.78,4.48-2.63,7,.09,1.52,2.37,1.13,3,.3a16.5,16.5,0,0,0,4.08-10C1514.12,401.49,1515,396.72,1512.76,395.55Z" style="fill:#432666"/><path d="M1413.52,852.17c-1.46-2.37-4.56-5.66-7.6-5.38-1.09.1-3.28,2.12-1.41,2.85,1.07.42,2.17,2.3,3,3.1a11.76,11.76,0,0,1,2.63,3.5c1.33,2.58.5,6,2.41,8.23.84,1,2.79,0,3.13-1C1416.9,860,1415.39,855.2,1413.52,852.17Z" style="fill:#432666"/><path d="M1422.62,841.4c-1.24-2.43-2.73-6-6-5.51-.57.09-1.26.85-.52,1.28.49.29,1,2.22,1.31,2.84.81,1.67,1.65,3.38,2.35,5.1a27.35,27.35,0,0,1,1.47,4.95c.32,1.61.19,3.33,1,4.78a1.48,1.48,0,0,0,2.49-.24C1426.28,850.25,1424.64,845.36,1422.62,841.4Z" style="fill:#432666"/><path d="M1431.89,844.31c-1-.54-3.15.18-2.72,1.63.32,1.09-.11,2.66-.15,3.79a24.59,24.59,0,0,1-.29,5.07c-.6,2.37-2.78,4.49-2.63,7,.09,1.52,2.37,1.13,3,.3a16.47,16.47,0,0,0,4.08-10C1433.25,850.25,1434.1,845.48,1431.89,844.31Z" style="fill:#432666"/><path d="M90.85,646.16c-1.46-2.37-4.56-5.66-7.6-5.38-1.09.1-3.28,2.12-1.41,2.85,1.07.42,2.17,2.3,3,3.1a11.76,11.76,0,0,1,2.63,3.5c1.32,2.58.5,6,2.41,8.23.84,1,2.79,0,3.13-1C94.23,654,92.72,649.18,90.85,646.16Z" style="fill:#432666"/><path d="M100,635.39c-1.24-2.43-2.73-6-6-5.51-.57.09-1.26.84-.52,1.28.49.29,1,2.22,1.31,2.84.81,1.67,1.65,3.38,2.35,5.1a27.35,27.35,0,0,1,1.47,4.95c.32,1.61.19,3.33,1,4.78a1.48,1.48,0,0,0,2.49-.24C103.61,644.24,102,639.35,100,635.39Z" style="fill:#432666"/><path d="M109.22,638.3c-1-.54-3.15.18-2.72,1.63.32,1.08-.11,2.66-.15,3.79a24.59,24.59,0,0,1-.29,5.07c-.6,2.37-2.78,4.48-2.63,7,.09,1.52,2.37,1.13,3,.3a16.4,16.4,0,0,0,4.07-10C110.58,644.24,111.43,639.47,109.22,638.3Z" style="fill:#432666"/><path d="M987.66,155.91a38.19,38.19,0,0,1,27.73,11.79c12,12.69,0,53.65,0,53.65Z" style="fill:#2b8aba"/><path d="M1039.62,234.6c-1.09-11.86-12.71-69.84-52-78.69,0,0,21.93,20.63,31.56,54.43,9.21,32.34,6.88,46.3,6.88,46.3s5.62,4.05,9.81-1.77S1040.72,246.46,1039.62,234.6Z" style="fill:#2f296a"/><path d="M1008.42,255.18c8.59-6.87,7.57-20.44,18.5-20.44a105.7,105.7,0,0,1,.26,14.89s8.62-1.76,10.28-4.84c3.17-5.89,2.24-9.36,2.24-9.36s8.82,2.51,11.42,8c1.8,3.8,1.38,17.32-.31,24.75C1046.74,286,1027,290,1014,289.9,1014,289.9,1005.58,265.19,1008.42,255.18Z" style="fill:#f8c7a4"/><path d="M901.82,357.58c-8.25,20.38-5.58,64.43-2,100.43s10.56,112.23,10.56,112.23L799.54,714.06l33.12,31.29s113.41-110,143.25-136.2S1024,358,1024,358Z" style="fill:#cc8f45"/><path d="M799.54,714.06l33.12,31.29s7.3,13.33,14.5,19.9c10.15,9.25,21.82,11.69,36.44,14.69s7.65,10-16,10c-29.18,0-40.17-13.26-45.22-18.25C806.05,755.55,783,728.05,783,728.05Z" style="fill:#251836"/><path d="M908.42,357.58c-2.47,20.43.44,48.57,24.21,90.69,26,46,57.49,110.31,57.49,110.31l22.1,211.63h46.55s7.83-196.51,5.16-218.74S1024,358,1024,358Z" style="fill:#e8a853"/><path d="M1012.22,770.21h46.55s58.42,10.25,67.28,11.43,16.54,8.28-22.45,8.28h-91.38Z" style="fill:#251836"/><path d="M943.94,155.91c-21.75,3.26-20.82,3-29.26,6.81-8,3.62-17.47,34.59-20.5,72.76-3.57,45-3,150.7-2.37,157.49,0,0,20.5,14.93,70.05,13.51s69.19-13.12,70.55-16.51-1.55-121.74-4.75-149c-4.12-35.16-7.9-66.16-40-85.06Z" style="fill:#bde4f6"/><path d="M945.27,12.27C956,8.6,1000.29,3.1,1011.73.16s26.43,34.29,5.3,53.73C995.23,73.94,945.27,12.27,945.27,12.27Z" style="fill:#2f296a"/><path d="M945.76,111.21l-1.82,44.7s13,24.37,33.24,23.9c22.58-.52,10.48-23.9,10.48-23.9l.24-19.22Z" style="fill:#ee9782"/><path d="M945.76,111.21s2.34,11.68,15.9,18.7,28.39,7.56,35.37,6.16c5.74-1.15,12.27-5.31,15.18-11.84,3.32-7.48,5.34-18.54,6.08-27.52,1.8-21.66,1.8-43.94-7.55-58.9s-41.37-25.24-69.65-10.75c-12.12,6.21-26.67,27.71-26.41,47.4C915,101,934.17,125,945.76,111.21Z" style="fill:#f8c7a4"/><path d="M945.76,111.21c-2.7,2.69-19.33-.4-20.33-18.53-1-17.44,14.91-19.41,20.33-14.27s4.87,15.16,4.87,15.16,8.83,1.72,9-8.44c.05-2.75-.5-13.58-.5-13.58,13-2.63,10.41-23.83,10.41-23.83s24.7,0,39.08-15.15c0,0-6.27-25.58-45.6-23.09s-54,24.06-53.83,45.75c.1,13.12-1.92,75.2,35.62,78.56Z" style="fill:#2f296a"/><path d="M920.11,158.53s15.3,21.29,9.66,77.64c-3.89,38.8-38,62.07-38,62.07L891.32,326s49.32-21,56.71-89.21c6.39-58.93-8.49-80.19-8.49-80.19S929.09,153.76,920.11,158.53Z" style="fill:#2f296a"/><path d="M907.7,267c8.59-6.87,9.36-20.58,20.29-20.58a78.29,78.29,0,0,1-5,14.19s18.85,5.74,20.83-1.5c1.75-6.46,2.87-12.69,2.87-12.69s6.39,3.69,9,9.16c1.8,3.79,1.66,14.9,0,22.32-4.06,17.79-29.31,23.95-42.39,23.82C913.23,301.71,904.86,277,907.7,267Z" style="fill:#f8c7a4"/><path d="M920.11,158.53c-12.79,2-24.85,6.23-36.66,21.29-15.11,19.28-55.73,76.09-65.87,93-18,30-18.77,45.22-11.29,56.19s88.75-8.6,106.55-21.41c0,0,3-30.35-5.14-40.58l-30,8.62L910.89,241S942.31,205.2,920.11,158.53Z" style="fill:#2b8aba"/><path d="M432.63,789.81s2.3-69.26-31-105.56S335,634.27,309.38,645s-20.83,43.5,8.33,55.34,82.71,45,86.87,89.6Z" style="fill:#432666"/><path d="M420.67,792.87h-.09a2.94,2.94,0,0,1-2.86-3c1.69-50.41-37.78-116.22-97.11-130.06A3,3,0,1,1,322,654c63,14.7,103.47,82.2,101.67,136A3,3,0,0,1,420.67,792.87Z" style="fill:#784b9e"/><path d="M420.68,789.92s7.67-69.22-14-127.84-56.53-89.32-37-117.24,64.9-20.24,90.72,37.68S475.71,743,457.61,789.75Z" style="fill:#432666"/><path d="M443,792.76a3.21,3.21,0,0,1-.68-.07,3,3,0,0,1-2.19-3.56c18.75-79.27,5.38-198.19-43.76-242.09a2.95,2.95,0,1,1,3.93-4.4c51.45,46,65.1,165.26,45.57,247.85A2.94,2.94,0,0,1,443,792.76Z" style="fill:#784b9e"/><path d="M503.94,357.58c-8.25,20.38-8,63.64-4.43,99.65s6.4,113,6.4,113L395.07,714.06l33.12,31.29s113.41-110,143.25-136.2,48-251.19,48-251.19Z" style="fill:#252457"/><path d="M395.07,714.06l33.12,31.29s7.29,13.33,14.5,19.9c10.15,9.25,21.82,11.69,36.43,14.69s7.66,10-16,10c-29.19,0-40.17-13.26-45.22-18.25-16.32-16.12-39.4-43.62-39.4-43.62Z" style="fill:#251836"/><path d="M503.94,357.58c-2.46,20.43.45,48.57,24.22,90.69,26,46,57.48,110.31,57.48,110.31l22.11,211.63H654.3s7.83-196.51,5.16-218.74-40-193.51-40-193.51Z" style="fill:#2f296a"/><path d="M607.75,770.21H654.3s58.42,10.25,67.28,11.43,16.54,8.28-22.45,8.28H607.75Z" style="fill:#251836"/><path d="M807.62,287.55c-8.85,2.74-17.37,5.85-17.37,5.85l-4.93,30.92c13.68,6,37.07,11.7,48.11,11.88s17.46-4.8,22.14-12.1,3.1-20.51-.61-24-13.94,1.25-24.59,1.42a44.15,44.15,0,0,1-13.86-1.81" style="fill:#f8c7a4"/><polygon points="772.17 155.91 824.62 326.03 798.4 789.91 824.62 789.91 845.89 326.03 785.32 167.06 772.17 155.91" style="fill:#a55858"/><path d="M576.83,175.67c3.51,16.94,50.14,76.79,64.29,94.26s28.77,29.58,53.13,36.65S783.58,326,783.58,326s14.24-11.5,6.67-32.63c-4.24-1.29-82.62-30.43-90.62-34.46s-47.38-65.72-59.16-82.12C624,153.84,570,144.9,576.83,175.67Z" style="fill:#ffcc30"/><path d="M551.59,155.91c-20.64,3.18-42.27,11.34-46,24.88s4.33,73.48,4.33,93.88-8.66,74.17-8.66,79.11,22.79,18.55,61.16,18.75c31.62.17,54.45-8.66,57-14.57,4.56-10.41,23.78-65.77,22.1-116.67-1.85-56.24-10.84-77.43-46.83-85.38Z" style="fill:#ffda61"/><path d="M439.07,415.16c-1.34,14.89.76,38.87,4.13,49.38S454.14,483.9,462.55,486s22.72-2.1,24.82-6.73-10.09-20.19-11.78-30.71,1.69-11.36,1.69-11.36a64.33,64.33,0,0,1,7.44,11.05c2.7,5.47,8.85-1.22,5.49-9.21S469.94,410,469.94,410Z" style="fill:#f8c7a4"/><path d="M608.09,22.61s19.47-1.06,30,16,5.79,36.15-12.46,43.33C603.36,90.72,608.09,22.61,608.09,22.61Z" style="fill:#2f296a"/><path d="M553.41,111.21l-1.82,44.7s13,24.37,33.24,23.9c22.57-.52,5.79-23.9,5.79-23.9l.81-19.77Z" style="fill:#ee9782"/><path d="M553.41,111.21s2.33,11.68,15.89,18.7,32.72,7.94,39.27,5.14,14.71-22,16.1-38.82c1.8-21.66,3.07-43.46-6.28-58.42S577.25,13,548.73,27.06c-20.73,10.2-32.32,45.85-20,67.6C533.31,102.83,541.27,112.66,553.41,111.21Z" style="fill:#f8c7a4"/><path d="M553.41,111.21s-19.51-1.07-20.34-18.53S548,73.27,553.41,78.41s4.87,15.16,4.87,15.16,7.2,0,9.14-10a44.86,44.86,0,0,0,0-17.72s33,3.27,51-28c0,0-8.59-29.06-47.92-26.56s-54.3,34.9-56.79,51.52c-1.95,13,1.64,58.43,39.18,61.79Z" style="fill:#2f296a"/><path d="M533.86,26s-8.11-12.37-29.76-12.64c-18.57-.23-34.91,10.4-42,33.06s-12.42,45.37-30.08,57.93c-15.3,10.89-44.94,13.37-37.51,38.63,6.6,22.45,47.32,25.7,70.93,9.28,22.66-15.75,26.73-35.53,28.6-55.33,2.34-24.78,7.22-57.18,28.12-56.82C522.19,40.12,532.05,35.3,533.86,26Z" style="fill:#2f296a"/><path d="M513.24,170.08c-14.93,8.74-56.73,72.06-68.76,91.06s-18.82,36.72-17.73,62.06,10.14,90.86,10.14,90.86,15.45,9.82,33.05-4.11c-.13-4.44,2.4-88,3.67-96.89s47.12-65.91,58.89-82.32C549,207.77,540.2,153.75,513.24,170.08Z" style="fill:#ffcc30"/><path d="M816.51,299.73s10.61-4.89,13.86-10.38c5.37-9,.21-11.18-5.89-7.66-3.16,1.82-10.42,3.87-16.86,5.86" style="fill:#f8c7a4"/><path d="M1220.55,789.81s-37.89-24-42.88-55.89,4-42.88,21.44-46.87,35.4-6.48,28.42-30.17-12-47.62,6-62.58,27.92-2,40.89,0,19.94-7,40.89-30.41c9.32-10.43,21.49-19.71,35.43-22.7,10.23-2.2,25.61-.16,25.77,13.47,0,4.49-1.79,8.78-3.79,12.81-6.45,13-15.08,25.65-16.17,40.14a22.18,22.18,0,0,0,1.65,11.21c2.93,6.07,9.5,9.46,13.73,14.71,8.55,10.61,5.64,27.08-3,37.63s-21.5,16.51-34,21.84c-4.37,1.86-8.82,3.73-12.49,6.75s-6.5,7.42-6.47,12.17c.06,7.18,6.27,12.66,8.88,19.35,3.25,8.33.61,17.86-3.68,25.71-9.07,16.6-25,27.53-42.89,32.83Z" style="fill:#432666"/><path d="M1239.54,792.76a3,3,0,0,1-3-3c0-102.77,62-200.76,120.31-240.78a3,3,0,0,1,3.35,4.87c-57.11,39.16-117.79,135.15-117.76,235.91A3,3,0,0,1,1239.54,792.76Z" style="fill:#784b9e"/></g></svg>