<svg id="_1" data-name="1" xmlns="http://www.w3.org/2000/svg" viewBox="0 0 1920 1010"><path d="M12.06,760.41C-47.78,610,124,356.94,331.5,273.07,521.79,196.16,624.59,309,876.79,219.58,1032.65,164.31,1019.42,112,1175.44,54.65,1403.19-29,1716.16-22.2,1792.05,114.08c56.4,101.3-66.33,187.61-14.86,367,42.65,148.65,147.64,161.6,142.64,252.58-8.19,148.87-300.63,320.64-539.35,266C1223.65,963.7,1226.91,861.41,1067,822.81c-195.86-47.26-273.23,88.64-539.35,107C367.69,940.81,73.14,914,12.06,760.41Z" style="fill:#662d91"/><path d="M1420.51,112.8c-1.37-2.22-4.27-5.3-7.12-5-1,.09-3.08,2-1.32,2.67,1,.39,2,2.15,2.82,2.9a11.2,11.2,0,0,1,2.47,3.28c1.24,2.42.46,5.63,2.26,7.71.78.91,2.61,0,2.92-.95C1423.67,120.12,1422.26,115.63,1420.51,112.8Z" style="fill:#432666"/><path d="M1429,102.71c-1.16-2.28-2.55-5.61-5.61-5.16-.54.08-1.18.79-.49,1.2.46.27,1,2.07,1.23,2.65.76,1.57,1.54,3.17,2.2,4.79a25.68,25.68,0,0,1,1.38,4.63c.3,1.51.18,3.12.93,4.48a1.4,1.4,0,0,0,2.34-.22C1432.46,111,1430.92,106.42,1429,102.71Z" style="fill:#432666"/><path d="M1437.72,105.44c-1-.51-3,.17-2.55,1.52.3,1-.1,2.49-.14,3.55a23.55,23.55,0,0,1-.27,4.75c-.56,2.23-2.61,4.21-2.47,6.55.09,1.42,2.22,1,2.85.28a15.39,15.39,0,0,0,3.82-9.33C1439,111,1439.79,106.53,1437.72,105.44Z" style="fill:#432666"/><path d="M1717.48,225.54c-1.37-2.22-4.27-5.3-7.12-5-1,.1-3.07,2-1.32,2.67,1,.39,2,2.16,2.83,2.9a11.26,11.26,0,0,1,2.46,3.29c1.24,2.41.47,5.62,2.26,7.7.78.91,2.61,0,2.93-.95C1720.65,232.86,1719.23,228.38,1717.48,225.54Z" style="fill:#432666"/><path d="M1726,215.45c-1.16-2.28-2.55-5.61-5.6-5.16-.54.08-1.18.79-.5,1.2.46.27,1,2.08,1.24,2.66.75,1.56,1.54,3.16,2.19,4.78a25,25,0,0,1,1.38,4.64c.3,1.51.18,3.12.94,4.48a1.39,1.39,0,0,0,2.33-.23C1729.43,223.74,1727.9,219.16,1726,215.45Z" style="fill:#432666"/><path d="M1734.69,218.18c-1-.51-3,.17-2.55,1.52.3,1-.1,2.49-.14,3.55a22.85,22.85,0,0,1-.27,4.75c-.56,2.23-2.6,4.21-2.46,6.55.08,1.42,2.22,1,2.84.28a15.39,15.39,0,0,0,3.82-9.33C1736,223.74,1736.77,219.27,1734.69,218.18Z" style="fill:#432666"/><path d="M1032.53,237.43c-1.37-2.22-4.28-5.3-7.12-5-1,.09-3.08,2-1.33,2.67,1,.39,2,2.15,2.83,2.9a11.2,11.2,0,0,1,2.47,3.28c1.24,2.42.46,5.63,2.25,7.71.79.91,2.62,0,2.93-.95C1035.69,244.74,1034.27,240.26,1032.53,237.43Z" style="fill:#432666"/><path d="M1041.05,227.34c-1.17-2.28-2.55-5.61-5.61-5.16-.54.08-1.18.79-.49,1.19.46.28,1,2.08,1.23,2.66.76,1.57,1.54,3.17,2.2,4.78a25,25,0,0,1,1.37,4.64c.3,1.51.19,3.12.94,4.48a1.4,1.4,0,0,0,2.34-.22C1044.48,235.63,1042.94,231.05,1041.05,227.34Z" style="fill:#432666"/><path d="M1049.73,230.07c-1-.51-2.94.17-2.55,1.52.3,1-.09,2.49-.14,3.55a22.84,22.84,0,0,1-.26,4.75c-.57,2.23-2.61,4.21-2.47,6.55.09,1.42,2.22,1.05,2.85.27a15.4,15.4,0,0,0,3.82-9.32C1051,235.63,1051.81,231.16,1049.73,230.07Z" style="fill:#432666"/><path d="M1222.08,408.74c-1.37-2.22-4.28-5.3-7.12-5-1,.09-3.08,2-1.33,2.67,1,.39,2,2.15,2.83,2.9a11.2,11.2,0,0,1,2.47,3.28c1.24,2.42.46,5.63,2.25,7.71.79.91,2.62,0,2.93-.95C1225.24,416.05,1223.82,411.57,1222.08,408.74Z" style="fill:#432666"/><path d="M1230.6,398.65c-1.17-2.28-2.55-5.61-5.61-5.16-.54.08-1.18.79-.49,1.19.46.28,1,2.08,1.23,2.66.76,1.57,1.54,3.17,2.2,4.78a25,25,0,0,1,1.37,4.64c.3,1.51.19,3.12.94,4.48a1.4,1.4,0,0,0,2.34-.22C1234,406.94,1232.49,402.36,1230.6,398.65Z" style="fill:#432666"/><path d="M1239.29,401.38c-1-.51-3,.17-2.56,1.52.3,1-.09,2.49-.14,3.55a22.84,22.84,0,0,1-.26,4.75c-.57,2.23-2.61,4.21-2.47,6.55.09,1.42,2.22,1.05,2.85.27a15.4,15.4,0,0,0,3.82-9.32C1240.56,406.94,1241.36,402.47,1239.29,401.38Z" style="fill:#432666"/><path d="M1709.45,506.27c-1.36-2.22-4.27-5.31-7.12-5-1,.1-3.07,2-1.32,2.67,1,.39,2,2.16,2.83,2.9a11.61,11.61,0,0,1,2.47,3.29c1.23,2.41.46,5.62,2.25,7.71.78.9,2.61,0,2.93-1C1712.62,513.58,1711.2,509.1,1709.45,506.27Z" style="fill:#432666"/><path d="M1718,496.18c-1.16-2.28-2.55-5.62-5.6-5.17-.54.08-1.18.79-.5,1.2.46.27,1,2.08,1.24,2.66.75,1.56,1.54,3.17,2.19,4.78a25,25,0,0,1,1.38,4.64c.3,1.51.18,3.12.94,4.48a1.39,1.39,0,0,0,2.33-.23C1721.4,504.46,1719.87,499.88,1718,496.18Z" style="fill:#432666"/><path d="M1726.66,498.9c-1-.51-3,.17-2.55,1.53.3,1-.1,2.49-.14,3.54a22.94,22.94,0,0,1-.27,4.76c-.56,2.22-2.6,4.2-2.46,6.54.08,1.42,2.22,1.06,2.84.28a15.34,15.34,0,0,0,3.82-9.33C1727.93,504.47,1728.74,500,1726.66,498.9Z" style="fill:#432666"/><path d="M1164.16,640c-1.36-2.22-4.27-5.3-7.12-5-1,.09-3.07,2-1.32,2.67,1,.39,2,2.15,2.83,2.9a11.56,11.56,0,0,1,2.47,3.28c1.23,2.41.46,5.63,2.25,7.71.78.91,2.61,0,2.93-1C1167.33,647.3,1165.91,642.82,1164.16,640Z" style="fill:#432666"/><path d="M1172.68,629.9c-1.16-2.28-2.55-5.61-5.6-5.16-.54.08-1.18.78-.5,1.19.46.27,1,2.08,1.24,2.66.75,1.56,1.54,3.17,2.19,4.78a25,25,0,0,1,1.38,4.64c.3,1.51.18,3.12.94,4.48a1.39,1.39,0,0,0,2.33-.22C1176.11,638.18,1174.58,633.6,1172.68,629.9Z" style="fill:#432666"/><path d="M1181.37,632.62c-1-.51-2.95.17-2.55,1.53.3,1-.1,2.49-.14,3.55a22.85,22.85,0,0,1-.27,4.75c-.56,2.22-2.6,4.2-2.46,6.54.08,1.43,2.22,1.06,2.84.28a15.34,15.34,0,0,0,3.82-9.32C1182.64,638.19,1183.45,633.72,1181.37,632.62Z" style="fill:#432666"/><path d="M1529.67,946.06c-1.37-2.22-4.27-5.3-7.12-5-1,.1-3.08,2-1.32,2.67,1,.39,2,2.16,2.83,2.9a11.26,11.26,0,0,1,2.46,3.29c1.24,2.41.47,5.62,2.26,7.7.78.91,2.61,0,2.93-1C1532.83,953.38,1531.42,948.9,1529.67,946.06Z" style="fill:#432666"/><path d="M1538.19,936c-1.16-2.28-2.55-5.61-5.6-5.16-.54.08-1.19.79-.5,1.2.46.27,1,2.08,1.23,2.66.76,1.56,1.54,3.16,2.2,4.78a25.68,25.68,0,0,1,1.38,4.63c.3,1.52.18,3.13.94,4.49a1.39,1.39,0,0,0,2.33-.23C1541.62,944.26,1540.08,939.68,1538.19,936Z" style="fill:#432666"/><path d="M1546.88,938.7c-1-.51-3,.17-2.55,1.52.3,1-.1,2.49-.14,3.55a22.85,22.85,0,0,1-.27,4.75c-.56,2.23-2.61,4.21-2.47,6.55.09,1.42,2.23,1,2.85.28a15.39,15.39,0,0,0,3.82-9.33C1548.15,944.26,1549,939.79,1546.88,938.7Z" style="fill:#432666"/><path d="M710.77,834c-1.37-2.22-4.27-5.31-7.12-5-1,.1-3.07,2-1.32,2.67,1,.4,2,2.16,2.83,2.9a11.39,11.39,0,0,1,2.46,3.29c1.24,2.41.47,5.62,2.26,7.71.78.91,2.61,0,2.93-1C713.94,841.31,712.52,836.83,710.77,834Z" style="fill:#432666"/><path d="M719.29,823.91c-1.16-2.28-2.55-5.62-5.6-5.17-.54.08-1.18.79-.5,1.2.46.27.95,2.08,1.24,2.66.75,1.56,1.54,3.17,2.19,4.78A25,25,0,0,1,718,832c.3,1.51.18,3.12.94,4.48a1.39,1.39,0,0,0,2.33-.23C722.72,832.19,721.19,827.61,719.29,823.91Z" style="fill:#432666"/><path d="M728,826.63c-1-.51-3,.17-2.55,1.53.3,1-.1,2.49-.14,3.54a22.94,22.94,0,0,1-.27,4.76c-.56,2.22-2.61,4.2-2.46,6.54.08,1.43,2.22,1.06,2.84.28a15.34,15.34,0,0,0,3.82-9.33C729.25,832.2,730.05,827.72,728,826.63Z" style="fill:#432666"/><path d="M185.71,519.76c-1.36-2.21-4.27-5.3-7.12-5-1,.1-3.07,2-1.32,2.67,1,.39,2,2.16,2.83,2.9a11.42,11.42,0,0,1,2.47,3.29c1.23,2.41.46,5.62,2.25,7.7.78.91,2.61,0,2.93-.95C188.88,527.08,187.46,522.6,185.71,519.76Z" style="fill:#432666"/><path d="M194.24,509.67c-1.17-2.28-2.56-5.61-5.61-5.16-.54.08-1.18.79-.49,1.2.46.27,1,2.08,1.23,2.66.75,1.56,1.54,3.16,2.2,4.78a25.75,25.75,0,0,1,1.37,4.64c.3,1.51.19,3.12.94,4.48a1.39,1.39,0,0,0,2.33-.23C197.66,518,196.13,513.38,194.24,509.67Z" style="fill:#432666"/><path d="M202.92,512.4c-1-.51-2.95.17-2.55,1.52.3,1-.1,2.49-.14,3.55a22.18,22.18,0,0,1-.27,4.75c-.56,2.23-2.6,4.21-2.46,6.55.08,1.42,2.22,1.05,2.84.28a15.39,15.39,0,0,0,3.82-9.33C204.19,518,205,513.49,202.92,512.4Z" style="fill:#432666"/><path d="M393.85,459.89c-1.36-2.22-4.27-5.3-7.12-5-1,.09-3.07,2-1.32,2.67,1,.39,2,2.15,2.83,2.9a11.56,11.56,0,0,1,2.47,3.28c1.23,2.42.46,5.63,2.25,7.71.78.91,2.61,0,2.93-1C397,467.2,395.6,462.72,393.85,459.89Z" style="fill:#432666"/><path d="M402.37,449.8c-1.16-2.28-2.55-5.61-5.6-5.16-.54.08-1.18.79-.5,1.19.46.28,1,2.08,1.24,2.66.75,1.57,1.54,3.17,2.19,4.78a25,25,0,0,1,1.38,4.64c.3,1.51.18,3.12.94,4.48a1.39,1.39,0,0,0,2.33-.22C405.8,458.08,404.27,453.51,402.37,449.8Z" style="fill:#432666"/><path d="M411.06,452.52c-1-.51-2.95.18-2.55,1.53.3,1-.1,2.49-.14,3.55a22.85,22.85,0,0,1-.27,4.75c-.56,2.23-2.6,4.2-2.46,6.55.08,1.42,2.22,1.05,2.84.27a15.34,15.34,0,0,0,3.82-9.32C412.33,458.09,413.14,453.62,411.06,452.52Z" style="fill:#432666"/><path d="M463.69,265.25c-1.37-2.22-4.28-5.3-7.13-5-1,.09-3.07,2-1.32,2.67,1,.39,2,2.15,2.83,2.9a11.38,11.38,0,0,1,2.47,3.28c1.24,2.42.46,5.63,2.25,7.71.79.91,2.61,0,2.93-.95C466.85,272.56,465.43,268.08,463.69,265.25Z" style="fill:#432666"/><path d="M472.21,255.16c-1.17-2.28-2.56-5.61-5.61-5.16-.54.08-1.18.79-.49,1.19.46.28.95,2.08,1.23,2.66.75,1.57,1.54,3.17,2.2,4.78a25.75,25.75,0,0,1,1.37,4.64c.3,1.51.19,3.12.94,4.48a1.4,1.4,0,0,0,2.34-.22C475.64,263.44,474.1,258.87,472.21,255.16Z" style="fill:#432666"/><path d="M480.89,257.88c-1-.51-2.95.18-2.55,1.53.3,1-.09,2.49-.14,3.55a22.84,22.84,0,0,1-.26,4.75c-.57,2.23-2.61,4.2-2.47,6.55.09,1.42,2.22,1.05,2.84.27a15.35,15.35,0,0,0,3.83-9.32C482.17,263.45,483,259,480.89,257.88Z" style="fill:#432666"/><path d="M395.34,719.91c-1.37-2.22-4.27-5.31-7.12-5-1,.1-3.08,2-1.32,2.67,1,.39,2,2.16,2.82,2.9a11.24,11.24,0,0,1,2.47,3.29c1.24,2.41.46,5.62,2.25,7.7.79.91,2.62,0,2.93-.95C398.5,727.22,397.09,722.74,395.34,719.91Z" style="fill:#432666"/><path d="M403.86,709.81c-1.16-2.27-2.55-5.61-5.61-5.16-.54.08-1.18.79-.49,1.2.46.27.95,2.08,1.23,2.66.76,1.56,1.54,3.17,2.2,4.78a25,25,0,0,1,1.37,4.64c.31,1.51.19,3.12.94,4.48a1.4,1.4,0,0,0,2.34-.23C407.29,718.1,405.75,713.52,403.86,709.81Z" style="fill:#432666"/><path d="M412.55,712.54c-1-.51-2.95.17-2.55,1.52.3,1-.1,2.5-.14,3.55a23.65,23.65,0,0,1-.27,4.76c-.56,2.22-2.61,4.2-2.47,6.54.09,1.42,2.22,1.06,2.85.28a15.37,15.37,0,0,0,3.82-9.33C413.82,718.11,414.62,713.63,412.55,712.54Z" style="fill:#432666"/><path d="M32.8,725.85c-1.36-2.22-4.27-5.3-7.12-5-1,.09-3.07,2-1.32,2.67,1,.39,2,2.15,2.83,2.9a11.56,11.56,0,0,1,2.47,3.28c1.23,2.41.46,5.63,2.25,7.71.78.91,2.61,0,2.93-1C36,733.16,34.55,728.68,32.8,725.85Z" style="fill:#432666"/><path d="M41.32,715.76c-1.16-2.28-2.55-5.61-5.6-5.16-.54.08-1.18.78-.5,1.19.46.27,1,2.08,1.24,2.66.75,1.56,1.54,3.17,2.19,4.78A25,25,0,0,1,40,723.87c.3,1.51.18,3.12.94,4.48a1.39,1.39,0,0,0,2.33-.22C44.75,724,43.22,719.46,41.32,715.76Z" style="fill:#432666"/><path d="M50,718.48c-1-.51-2.95.17-2.55,1.53.3,1-.1,2.49-.14,3.55a22.85,22.85,0,0,1-.27,4.75c-.56,2.23-2.6,4.2-2.46,6.55.08,1.42,2.22,1,2.84.27a15.34,15.34,0,0,0,3.82-9.32C51.28,724.05,52.09,719.58,50,718.48Z" style="fill:#432666"/><path d="M1747.07,761.92c-1.37-2.22-4.27-5.3-7.12-5-1,.09-3.07,2-1.32,2.67,1,.39,2,2.15,2.83,2.9a11.34,11.34,0,0,1,2.46,3.28c1.24,2.41.47,5.63,2.26,7.71.78.91,2.61,0,2.93-1C1750.24,769.23,1748.82,764.75,1747.07,761.92Z" style="fill:#432666"/><path d="M1755.59,751.83c-1.16-2.28-2.55-5.61-5.6-5.16-.54.08-1.18.78-.5,1.19.46.28,1,2.08,1.24,2.66.75,1.57,1.54,3.17,2.19,4.78a25,25,0,0,1,1.38,4.64c.3,1.51.18,3.12.94,4.48a1.39,1.39,0,0,0,2.33-.22C1759,760.11,1757.49,755.53,1755.59,751.83Z" style="fill:#432666"/><path d="M1764.28,754.55c-1-.51-3,.18-2.55,1.53.3,1-.1,2.49-.14,3.55a22.85,22.85,0,0,1-.27,4.75c-.56,2.23-2.6,4.2-2.46,6.55.08,1.42,2.22,1.05,2.84.27a15.34,15.34,0,0,0,3.82-9.32C1765.55,760.12,1766.35,755.65,1764.28,754.55Z" style="fill:#432666"/><path d="M512.06,171c-13.18,11.08-23.46,26-25.51,45s6.67,59.08,56.5,71.92,99.72-7.49,101.58-40.9c1.46-26.28-11.93-27.93-31.58-41.29s-16.57-29.56-16.57-29.56Z" style="fill:#2f296a"/><path d="M579.48,242.78c12,4.31,23.38,4,30.74,23.26s19.21,54.48,19.21,54.48L694.92,338l-15.27,22.88-74.79-7.18Z" style="fill:#455991"/><path d="M497.05,419.66s7.82-65.54,8.28-86c1.18-53.19-3.18-83.1,2.27-92.37s42-10.35,64.84-1.63,24,19.38,31.82,48.57c7.28,27.1,7.38,87.37,3.06,131.41Z" style="fill:#5969a4"/><path d="M384.61,615.15H124.74s-7.87-32.33,13.11-52.26,58.74-12.59,58.74-12.59-10-24.65-.52-47.21C204,484.2,233.68,468,254,484.74c0,0,7.68-33.57,50.69-37.77s67,37.23,67.08,64.51Z" style="fill:#262262"/><path d="M821.53,497.24H340l16.19,117.91H821.53C850.22,589.86,838.83,518,821.53,497.24Z" style="fill:#a55858"/><path d="M340,497.24c24.19,0,48.38,79.81,16.19,117.91C320.1,606.93,306.58,530.09,340,497.24Z" style="fill:#cf8970"/><path d="M345.55,498.64c-28.19,32.39-17.45,99,13.39,113C384.75,575.46,366.88,508.92,345.55,498.64Z" style="fill:#f9bb87"/><path d="M384.61,497.24c17.9,0,7.37-25.76,0-40.5,8.64-3.07,17.88-3.94,28.42,0,0,0,12.11,17.4,19,28.95s24.74,11.55,36.32,11.55c0,0-6.84,14.24-44.21,14.24S384.61,497.24,384.61,497.24Z" style="fill:#a55858"/><path d="M607.32,419.66S718,424.8,730,426.07s17.77,7,21.58,12.7,78.93,114,78.93,114l-32.39,18.32-79-80.26h-97Z" style="fill:#252457"/><path d="M798.14,571.07l7.08,11.09s25-13.24,47.81-25.73,37.1-23,16.52-16.62c-19.6,6.05-39,12.94-39,12.94Z" style="fill:#251836"/><path d="M497.05,419.66l2.85,25.06a59.21,59.21,0,0,0,58.83,52.52H665.8l46.13,105.69L747.17,591S724.65,464.72,720.23,454.1s-4.41-14.15-30-20.33-82.92-14.11-82.92-14.11Z" style="fill:#2f296a"/><path d="M711.93,602.93l4.88,12.22s27.08-8.34,51.77-16.36,40.74-15.64,19.33-13.25c-20.38,2.28-40.74,5.44-40.74,5.44Z" style="fill:#251836"/><path d="M467.65,430.6c13.19,33.27,29.76,57.56,65.92,56.06s48-43.32,61.23-52,22.11-4.6,31.81-4.63,57.8-9,31.66-75-67.35-39.55-74.43-32.92-10.77,15.71-26.34,18.41-52.87-19.62-80.24,4.07S454.47,397.33,467.65,430.6Z" style="fill:#e8a853"/><rect x="487.38" y="400.37" width="77.57" height="14.08" transform="translate(711 -231.86) rotate(68.38)" style="fill:#522b3b"/><polygon points="774.33 321.24 765.82 299.77 601.19 361.87 612.01 389.16 774.33 321.24" style="fill:#aa683a"/><path d="M607.36,399a22.13,22.13,0,1,1,12.42-28.73A22.13,22.13,0,0,1,607.36,399Z" style="fill:#522b3b"/><path d="M756.16,303.42c4.72-1.87,6.39-7.59,8-11.28,2.85-6.6,49.43-14.12,54.57-14.95s8.88,7.82,9.8,10.15,4.13,11.17-.18,14.1-43.4,29.36-50,26.51c-3.69-1.6-8.82-4.62-13.55-2.75Z" style="fill:#e8a853"/><path d="M534.84,381.86c8,8.92,23.27,20.79,31.29,24.56s17.36,4.14,23.2.35,11.17-14.51,9.6-18.27-17.39-5.1-24.49-9.86-5.76-7.2-5.76-7.2a52,52,0,0,1,10.57,1.67c4.69,1.4,4.12-5.87-2.42-8.26s-28.18-4-28.18-4Z" style="fill:#ee9782"/><path d="M518.57,235.48c-8.12-.77-26.05,6-37.3,29.92-16,34.06-31.2,66.55-33.71,75.54s.64,14.52,9.63,19.05,80,26.65,80,26.65L549,360.74,493.1,331.08s14.33-30.46,20.37-42S527.19,245.3,518.57,235.48Z" style="fill:#455991"/><path d="M593.24,134s15.6,1.3,22.13,16,.63,29.38-14.67,33.09C582,187.66,593.24,134,593.24,134Z" style="fill:#2f296a"/><path d="M540,198.45l-6.36,35.35s7.66,20.81,23.8,22.66c18,2.07,7.24-18.37,7.24-18.37l2.81-15.63Z" style="fill:#ee9782"/><path d="M540,198.45s.58,9.55,10.58,16.62,25.15,9.92,30.66,8.41,14.12-15.86,17.08-29.09c3.81-17,7.22-34.22,1.43-47.15s-30-24.22-54.2-16.21S505.58,187.24,540,198.45Z" style="fill:#f8c7a4"/><path d="M540,198.45s-15.39-3-14.13-17,14-13.8,17.74-9.12S545.83,185,545.83,185s5.73.75,8.37-7a36.06,36.06,0,0,0,1.95-14.1s25.85,6.23,43.61-16.66c0,0-3.63-24.05-35.18-26.39s-47,21.77-50.82,34.71c-3,10.11-5.53,46.32,24,53.12Z" style="fill:#2f296a"/><path d="M512.06,171s26-27,81.18-36.94c0,0-1-8.19-15.38-14.93s-36.62-10.84-45.71-6.73-20.51,23.73-22.85,34.86S507.78,168,512.06,171Z" style="fill:#7b61a6"/><circle cx="530.47" cy="107.68" r="12.74" style="fill:#9ba1d0"/><path d="M687.76,357.47c3.35-2.92,3.07-14.88,2.93-19.38-.18-5.83,2.4-10.88,11.19-11.4,8.32-.5,13.84,10.63,13.63,19.17s-4.09,14.59-16.06,20.44-19.8-5.44-19.8-5.44Z" style="fill:#ee9782"/><path d="M979.6,731.41s-73,19.94-81,25.64-4,42.18,17.1,42.18,97.47-58.12,97.47-58.12,87.78,13.63,102,12.22,18.24-37.32,6.84-47-109.57,9.52-109.57,9.52-101.47-26.36-109.31-28.22c-12-2.85-18.81,39.17-8.37,41.5C910.45,732.61,979.6,731.41,979.6,731.41Z" style="fill:#a55858"/><path d="M1008.47,726.62c-39.11,2.25-66-18.6-76.29-50.54s-2.06-67.68,8.94-88.29,22.68-25.43,23.37-14.44,2.74,34.37,7.56,39.87,17.18-5.5,19.24-37.81-2.06-62.54,2.75-64.6,16.49,9,24.74,36.81,7.56,61.47,17.87,62.16,11.69-28.18,17.87-30.24,26.12,26.15,24.06,70.12S1044.21,724.56,1008.47,726.62Z" style="fill:#ffda61"/><path d="M1008.1,720.34c-22.22,2.93-41.26-17-45.06-41.13s7.61-50.14,12.05-43.79,10.16,43.24,19,40.66,7-75.56,14-76.2,27.29,35,28.55,60.4S1031,717.32,1008.1,720.34Z" style="fill:#f18857"/><path d="M1049.22,527.34c-4.65-2.23.46,12.39,2.31,24.89s8.33,9.26,9.26,0S1055.23,530.24,1049.22,527.34Z" style="fill:#ffda61"/><path d="M899.43,761c2.68-2.68,7.86,2.71,13.21,13.26,4.08,8,6.78,18,3.14,21.69s-13.26-7.05-16.35-15.3C896.81,773.67,896.35,764.08,899.43,761Z" style="fill:#cf8970"/><path d="M1303,703.76h429.77l-16.19,117.92H1303C1274.32,796.38,1285.71,724.52,1303,703.76Z" style="fill:#a55858"/><path d="M1732.78,703.76c-24.19,0-48.38,79.82-16.19,117.92C1752.7,813.46,1766.22,736.61,1732.78,703.76Z" style="fill:#cf8970"/><path d="M1727.25,705.16c28.19,32.4,17.46,99-13.38,113C1688.06,782,1705.93,715.45,1727.25,705.16Z" style="fill:#f9bb87"/><path d="M1688.2,703.76c-17.9,0-7.37-25.75,0-40.49-8.65-3.08-17.88-3.95-28.42,0,0,0-12.11,17.4-19,29s-24.74,11.54-36.32,11.54c0,0,6.84,14.25,44.21,14.25S1688.2,703.76,1688.2,703.76Z" style="fill:#a55858"/><path d="M1279.64,572.4c-4.7.47-9.86-5.16-13.38-7.74s-7.51-7.75-9.39-10.56-8-.47-7.75,5.16,3.52,13.17,3.52,13.17L1281.55,591Z" style="fill:#f8c7a4"/><path d="M1449.89,469.94c-11.19,1.26-17.71,9.28-28.78,26.14s-37.39,56.08-37.39,56.08L1278.49,569s-2.11,18.13,4.63,29.94c0,0,86-3.2,94.45-3.5s19.82-1.14,29.51-10.84,53.13-60.29,53.13-60.29Z" style="fill:#d2535c"/><path d="M1498.82,626.18s-110.65,5.15-122.7,6.42-17.78,7-21.58,12.69-78.93,114-78.93,114L1308,777.59l79-80.25h97Z" style="fill:#cc8f45"/><path d="M1308,777.59l-7.08,11.1s-25-13.25-47.81-25.73-37.1-23-16.52-16.62c19.6,6,39,12.94,39,12.94Z" style="fill:#251836"/><path d="M1596.07,626.18l2.69,17.75a52.05,52.05,0,0,1-51.47,59.83h-107l-46.12,105.69-35.24-12s22.52-126.25,26.93-136.87,4.42-14.16,30-20.33,82.92-14.12,82.92-14.12Z" style="fill:#e8a853"/><path d="M1394.21,809.45l-4.89,12.23s-27.07-8.35-51.76-16.36-40.74-15.65-19.33-13.25c20.38,2.28,40.74,5.43,40.74,5.43Z" style="fill:#251836"/><path d="M1483.87,460.61c10.15-2.27,30.58-5.83,42.13,11.05s51.32,94.09,70.07,154.52h-97.25L1467,627.7s-25.35-73.88-32-101,1.46-49.18,14.94-56.79Z" style="fill:#e76367"/><path d="M1443.66,352.54c-9.11.16-44,8.09-53.48,9s-10.59,33.1,10.67,42C1422.77,412.73,1443.66,352.54,1443.66,352.54Z" style="fill:#2f296a"/><path d="M1470.29,427.36l13.58,33.25s-3.17,21.94-18.57,27.11c-17.18,5.77-14.43-15.18-14.43-15.18l-5.43-14.44Z" style="fill:#ee9782"/><path d="M1470.29,427.36s1.43,9.46-6.89,18.45-19.37,13.47-25,14.31a17.45,17.45,0,0,1-14.69-4.79c-4.55-4.74-9.09-12.54-12.11-19.12-7.26-15.86-13.35-32.67-10.37-46.52s24.34-30.35,49.64-27.13c10.84,1.38,27.7,13.64,32.87,28.57C1490.7,411.25,1482.81,434.61,1470.29,427.36Z" style="fill:#f8c7a4"/><path d="M1470.29,427.36c2.78,1.29,14.49-5.58,10.3-19.54-4-13.43-16.56-10.58-19.25-5.22s.46,12.77.46,12.77-6.2,3.71-9.12-3.9c-.79-2.07-3.33-10.39-3.33-10.39-10.56,1.57-14.36-15.15-14.36-15.15s-18.65,6.74-33.64-.77c0,0-2.25-21,28.12-29.88s47.33,3.43,53.12,19.84c3.51,9.94,22,56.25-5.44,69Z" style="fill:#2f296a"/><path d="M1503.28,458.65c15.9-.61,28.62,1.94,35,30.08s10.62,112.45,10.09,119,1.72,14.93-18,18.49c-17.73,3.2-105.58,12.16-105.58,12.16l-3.62-26,84.82-23.89-7.11-76.32S1491.09,476.76,1503.28,458.65Z" style="fill:#d2535c"/><path d="M1421.47,614.94c-11.73,3.16-30,6.34-34.26,8.72s-11.38,22.42-12.7,26.92.25,15.07,1.47,20.85c.82,3.85,7.61,2.67,8.5-6s1.41-9.77,2.73-13,8.14-10,11.32-9.75,14.93,3.33,25.92-6.42Z" style="fill:#f8c7a4"/><polygon points="1116.12 502.07 1167.35 520.03 1315.59 612.12 1305.15 626.18 1196.84 553.08 1182.92 557.43 1152.91 553.95 1181.62 552.65 1189.88 548.46 1162.48 525.68 1116.12 502.07" style="fill:#a55858"/><path d="M1235.44,577.43c4.06-9,9.15-11.09,19.76-10.41s17.15,6.6,18.71,10.34-.37,7.79-6.58,11.54-3.95,9.09-2.52,10.06,6.1,4.11,6.1,4.11-5.42,3.6-10.72,1.73-20.62-7.85-23.74-14.09S1233.62,581.48,1235.44,577.43Z" style="fill:#f8c7a4"/><path d="M1113.81,479.27c-4.13-.25-10.3,3.55-15,12.91s-3.16,19.16-1.69,21.44,35.38,18,39.71,17.13,11.63-7.74,14.51-13.61c3.73-7.6,4.55-14.32,2.56-18.19S1120.28,479.66,1113.81,479.27Z" style="fill:#ffedd4"/><path d="M1104.49,493.9l-29.13-9.09L1102,498.55A3.67,3.67,0,0,0,1104.49,493.9Z" style="fill:#a55858"/></svg>